<mxfile host="Electron" agent="Mozilla/5.0 (Windows NT 10.0; Win64; x64) AppleWebKit/537.36 (KHTML, like Gecko) draw.io/24.7.8 Chrome/128.0.6613.36 Electron/32.0.1 Safari/537.36" version="24.7.8">
  <diagram name="Página-1" id="eWNVr4IJtD6i0ppR1x0R">
    <mxGraphModel dx="1707" dy="532" grid="1" gridSize="10" guides="1" tooltips="1" connect="1" arrows="1" fold="1" page="1" pageScale="1" pageWidth="827" pageHeight="1169" math="0" shadow="0">
      <root>
        <mxCell id="0" />
        <mxCell id="1" parent="0" />
        <mxCell id="I6gEkJs_VYYYeB5HXrWA-4" style="edgeStyle=orthogonalEdgeStyle;rounded=0;orthogonalLoop=1;jettySize=auto;html=1;entryX=0.5;entryY=0;entryDx=0;entryDy=0;" edge="1" parent="1" source="I6gEkJs_VYYYeB5HXrWA-1" target="I6gEkJs_VYYYeB5HXrWA-2">
          <mxGeometry relative="1" as="geometry">
            <Array as="points">
              <mxPoint x="340" y="100" />
              <mxPoint x="125" y="100" />
            </Array>
          </mxGeometry>
        </mxCell>
        <mxCell id="I6gEkJs_VYYYeB5HXrWA-5" style="edgeStyle=orthogonalEdgeStyle;rounded=0;orthogonalLoop=1;jettySize=auto;html=1;" edge="1" parent="1" source="I6gEkJs_VYYYeB5HXrWA-1" target="I6gEkJs_VYYYeB5HXrWA-3">
          <mxGeometry relative="1" as="geometry">
            <Array as="points">
              <mxPoint x="340" y="100" />
              <mxPoint x="630" y="100" />
            </Array>
          </mxGeometry>
        </mxCell>
        <mxCell id="I6gEkJs_VYYYeB5HXrWA-1" value="PERSONA" style="whiteSpace=wrap;html=1;" vertex="1" parent="1">
          <mxGeometry x="280" y="20" width="120" height="60" as="geometry" />
        </mxCell>
        <mxCell id="I6gEkJs_VYYYeB5HXrWA-41" style="edgeStyle=orthogonalEdgeStyle;rounded=0;orthogonalLoop=1;jettySize=auto;html=1;entryX=0.5;entryY=0;entryDx=0;entryDy=0;" edge="1" parent="1" source="I6gEkJs_VYYYeB5HXrWA-2" target="I6gEkJs_VYYYeB5HXrWA-17">
          <mxGeometry relative="1" as="geometry">
            <Array as="points">
              <mxPoint x="80" y="205" />
            </Array>
          </mxGeometry>
        </mxCell>
        <mxCell id="I6gEkJs_VYYYeB5HXrWA-42" style="edgeStyle=orthogonalEdgeStyle;rounded=0;orthogonalLoop=1;jettySize=auto;html=1;" edge="1" parent="1" source="I6gEkJs_VYYYeB5HXrWA-2" target="I6gEkJs_VYYYeB5HXrWA-20">
          <mxGeometry relative="1" as="geometry" />
        </mxCell>
        <mxCell id="I6gEkJs_VYYYeB5HXrWA-2" value="ALUMNO" style="whiteSpace=wrap;html=1;" vertex="1" parent="1">
          <mxGeometry x="65" y="115" width="120" height="60" as="geometry" />
        </mxCell>
        <mxCell id="I6gEkJs_VYYYeB5HXrWA-8" style="edgeStyle=orthogonalEdgeStyle;rounded=0;orthogonalLoop=1;jettySize=auto;html=1;entryX=0.5;entryY=0;entryDx=0;entryDy=0;" edge="1" parent="1" source="I6gEkJs_VYYYeB5HXrWA-3" target="I6gEkJs_VYYYeB5HXrWA-6">
          <mxGeometry relative="1" as="geometry" />
        </mxCell>
        <mxCell id="I6gEkJs_VYYYeB5HXrWA-9" style="edgeStyle=orthogonalEdgeStyle;rounded=0;orthogonalLoop=1;jettySize=auto;html=1;entryX=0.5;entryY=0;entryDx=0;entryDy=0;" edge="1" parent="1" source="I6gEkJs_VYYYeB5HXrWA-3" target="I6gEkJs_VYYYeB5HXrWA-7">
          <mxGeometry relative="1" as="geometry" />
        </mxCell>
        <mxCell id="I6gEkJs_VYYYeB5HXrWA-30" value="" style="edgeStyle=orthogonalEdgeStyle;rounded=0;orthogonalLoop=1;jettySize=auto;html=1;" edge="1" parent="1" source="I6gEkJs_VYYYeB5HXrWA-3" target="I6gEkJs_VYYYeB5HXrWA-29">
          <mxGeometry relative="1" as="geometry" />
        </mxCell>
        <mxCell id="I6gEkJs_VYYYeB5HXrWA-3" value="ADULTO" style="whiteSpace=wrap;html=1;" vertex="1" parent="1">
          <mxGeometry x="570" y="130" width="120" height="60" as="geometry" />
        </mxCell>
        <mxCell id="I6gEkJs_VYYYeB5HXrWA-27" value="" style="edgeStyle=orthogonalEdgeStyle;rounded=0;orthogonalLoop=1;jettySize=auto;html=1;" edge="1" parent="1" source="I6gEkJs_VYYYeB5HXrWA-6" target="I6gEkJs_VYYYeB5HXrWA-26">
          <mxGeometry relative="1" as="geometry">
            <Array as="points">
              <mxPoint x="420" y="270" />
              <mxPoint x="420" y="185" />
            </Array>
          </mxGeometry>
        </mxCell>
        <mxCell id="I6gEkJs_VYYYeB5HXrWA-33" value="" style="edgeStyle=orthogonalEdgeStyle;rounded=0;orthogonalLoop=1;jettySize=auto;html=1;" edge="1" parent="1" source="I6gEkJs_VYYYeB5HXrWA-6" target="I6gEkJs_VYYYeB5HXrWA-32">
          <mxGeometry relative="1" as="geometry" />
        </mxCell>
        <mxCell id="I6gEkJs_VYYYeB5HXrWA-6" value="TUTOR" style="whiteSpace=wrap;html=1;" vertex="1" parent="1">
          <mxGeometry x="480" y="240" width="120" height="60" as="geometry" />
        </mxCell>
        <mxCell id="I6gEkJs_VYYYeB5HXrWA-7" value="PERSONA&amp;nbsp;&lt;div&gt;AUTORIZADA&lt;/div&gt;" style="whiteSpace=wrap;html=1;" vertex="1" parent="1">
          <mxGeometry x="660" y="240" width="120" height="60" as="geometry" />
        </mxCell>
        <mxCell id="I6gEkJs_VYYYeB5HXrWA-10" value="(T,E)" style="text;html=1;align=center;verticalAlign=middle;resizable=0;points=[];autosize=1;strokeColor=none;fillColor=none;" vertex="1" parent="1">
          <mxGeometry x="405" y="68" width="50" height="30" as="geometry" />
        </mxCell>
        <mxCell id="I6gEkJs_VYYYeB5HXrWA-11" value="(T,S)" style="text;html=1;align=center;verticalAlign=middle;resizable=0;points=[];autosize=1;strokeColor=none;fillColor=none;" vertex="1" parent="1">
          <mxGeometry x="690" y="190" width="50" height="30" as="geometry" />
        </mxCell>
        <mxCell id="I6gEkJs_VYYYeB5HXrWA-40" value="" style="edgeStyle=orthogonalEdgeStyle;rounded=0;orthogonalLoop=1;jettySize=auto;html=1;" edge="1" parent="1" source="I6gEkJs_VYYYeB5HXrWA-12" target="I6gEkJs_VYYYeB5HXrWA-13">
          <mxGeometry relative="1" as="geometry" />
        </mxCell>
        <mxCell id="I6gEkJs_VYYYeB5HXrWA-12" value="MENÚ" style="whiteSpace=wrap;html=1;" vertex="1" parent="1">
          <mxGeometry x="-100" y="330" width="120" height="60" as="geometry" />
        </mxCell>
        <mxCell id="I6gEkJs_VYYYeB5HXrWA-16" value="" style="edgeStyle=orthogonalEdgeStyle;rounded=0;orthogonalLoop=1;jettySize=auto;html=1;" edge="1" parent="1" source="I6gEkJs_VYYYeB5HXrWA-13" target="I6gEkJs_VYYYeB5HXrWA-15">
          <mxGeometry relative="1" as="geometry" />
        </mxCell>
        <mxCell id="I6gEkJs_VYYYeB5HXrWA-13" value="dispone" style="rhombus;whiteSpace=wrap;html=1;" vertex="1" parent="1">
          <mxGeometry x="60" y="340" width="40" height="40" as="geometry" />
        </mxCell>
        <mxCell id="I6gEkJs_VYYYeB5HXrWA-15" value="PLATO" style="whiteSpace=wrap;html=1;" vertex="1" parent="1">
          <mxGeometry x="140" y="330" width="120" height="60" as="geometry" />
        </mxCell>
        <mxCell id="I6gEkJs_VYYYeB5HXrWA-19" value="" style="edgeStyle=orthogonalEdgeStyle;rounded=0;orthogonalLoop=1;jettySize=auto;html=1;" edge="1" parent="1" source="I6gEkJs_VYYYeB5HXrWA-17" target="I6gEkJs_VYYYeB5HXrWA-12">
          <mxGeometry relative="1" as="geometry" />
        </mxCell>
        <mxCell id="I6gEkJs_VYYYeB5HXrWA-17" value="posee" style="rhombus;whiteSpace=wrap;html=1;" vertex="1" parent="1">
          <mxGeometry x="5" y="230" width="60" height="50" as="geometry" />
        </mxCell>
        <mxCell id="I6gEkJs_VYYYeB5HXrWA-22" style="edgeStyle=orthogonalEdgeStyle;rounded=0;orthogonalLoop=1;jettySize=auto;html=1;entryX=0.5;entryY=0;entryDx=0;entryDy=0;" edge="1" parent="1" source="I6gEkJs_VYYYeB5HXrWA-20" target="I6gEkJs_VYYYeB5HXrWA-15">
          <mxGeometry relative="1" as="geometry" />
        </mxCell>
        <mxCell id="I6gEkJs_VYYYeB5HXrWA-20" value="consume" style="rhombus;whiteSpace=wrap;html=1;" vertex="1" parent="1">
          <mxGeometry x="165" y="240" width="60" height="50" as="geometry" />
        </mxCell>
        <mxCell id="I6gEkJs_VYYYeB5HXrWA-23" value="    fecha" style="shape=waypoint;sketch=0;size=6;pointerEvents=1;points=[];fillColor=none;resizable=0;rotatable=0;perimeter=centerPerimeter;snapToPoint=1;align=left;" vertex="1" parent="1">
          <mxGeometry x="215" y="240" width="20" height="20" as="geometry" />
        </mxCell>
        <mxCell id="I6gEkJs_VYYYeB5HXrWA-24" value="precio    " style="shape=waypoint;sketch=0;size=6;pointerEvents=1;points=[];fillColor=none;resizable=0;rotatable=0;perimeter=centerPerimeter;snapToPoint=1;align=right;" vertex="1" parent="1">
          <mxGeometry x="165" y="280" width="20" height="20" as="geometry" />
        </mxCell>
        <mxCell id="I6gEkJs_VYYYeB5HXrWA-25" style="edgeStyle=orthogonalEdgeStyle;rounded=0;orthogonalLoop=1;jettySize=auto;html=1;entryX=1.033;entryY=0.25;entryDx=0;entryDy=0;entryPerimeter=0;" edge="1" parent="1" source="I6gEkJs_VYYYeB5HXrWA-24" target="I6gEkJs_VYYYeB5HXrWA-24">
          <mxGeometry relative="1" as="geometry" />
        </mxCell>
        <mxCell id="I6gEkJs_VYYYeB5HXrWA-28" style="edgeStyle=orthogonalEdgeStyle;rounded=0;orthogonalLoop=1;jettySize=auto;html=1;exitX=0.5;exitY=0;exitDx=0;exitDy=0;" edge="1" parent="1" source="I6gEkJs_VYYYeB5HXrWA-26" target="I6gEkJs_VYYYeB5HXrWA-2">
          <mxGeometry relative="1" as="geometry">
            <mxPoint x="260" y="150" as="targetPoint" />
            <Array as="points">
              <mxPoint x="305" y="160" />
              <mxPoint x="305" y="150" />
            </Array>
          </mxGeometry>
        </mxCell>
        <mxCell id="I6gEkJs_VYYYeB5HXrWA-26" value="tutela" style="rhombus;whiteSpace=wrap;html=1;" vertex="1" parent="1">
          <mxGeometry x="350" y="160" width="50" height="50" as="geometry" />
        </mxCell>
        <mxCell id="I6gEkJs_VYYYeB5HXrWA-31" style="edgeStyle=orthogonalEdgeStyle;rounded=0;orthogonalLoop=1;jettySize=auto;html=1;entryX=0.999;entryY=0.162;entryDx=0;entryDy=0;entryPerimeter=0;" edge="1" parent="1" source="I6gEkJs_VYYYeB5HXrWA-29" target="I6gEkJs_VYYYeB5HXrWA-2">
          <mxGeometry relative="1" as="geometry">
            <Array as="points">
              <mxPoint x="337" y="150" />
              <mxPoint x="337" y="130" />
              <mxPoint x="260" y="130" />
            </Array>
          </mxGeometry>
        </mxCell>
        <mxCell id="I6gEkJs_VYYYeB5HXrWA-29" value="retira" style="rhombus;whiteSpace=wrap;html=1;" vertex="1" parent="1">
          <mxGeometry x="414" y="125" width="50" height="50" as="geometry" />
        </mxCell>
        <mxCell id="I6gEkJs_VYYYeB5HXrWA-35" value="" style="edgeStyle=orthogonalEdgeStyle;rounded=0;orthogonalLoop=1;jettySize=auto;html=1;" edge="1" parent="1" source="I6gEkJs_VYYYeB5HXrWA-32" target="I6gEkJs_VYYYeB5HXrWA-34">
          <mxGeometry relative="1" as="geometry" />
        </mxCell>
        <mxCell id="I6gEkJs_VYYYeB5HXrWA-32" value="realiza" style="rhombus;whiteSpace=wrap;html=1;" vertex="1" parent="1">
          <mxGeometry x="515" y="340" width="50" height="50" as="geometry" />
        </mxCell>
        <mxCell id="I6gEkJs_VYYYeB5HXrWA-38" value="" style="edgeStyle=orthogonalEdgeStyle;rounded=0;orthogonalLoop=1;jettySize=auto;html=1;" edge="1" parent="1" source="I6gEkJs_VYYYeB5HXrWA-34" target="I6gEkJs_VYYYeB5HXrWA-37">
          <mxGeometry relative="1" as="geometry">
            <Array as="points">
              <mxPoint x="460" y="360" />
              <mxPoint x="405" y="360" />
            </Array>
          </mxGeometry>
        </mxCell>
        <mxCell id="I6gEkJs_VYYYeB5HXrWA-44" value="" style="edgeStyle=orthogonalEdgeStyle;rounded=0;orthogonalLoop=1;jettySize=auto;html=1;" edge="1" parent="1" source="I6gEkJs_VYYYeB5HXrWA-34" target="I6gEkJs_VYYYeB5HXrWA-43">
          <mxGeometry relative="1" as="geometry">
            <Array as="points">
              <mxPoint x="580" y="470" />
              <mxPoint x="580" y="445" />
            </Array>
          </mxGeometry>
        </mxCell>
        <mxCell id="I6gEkJs_VYYYeB5HXrWA-48" value="" style="edgeStyle=orthogonalEdgeStyle;rounded=0;orthogonalLoop=1;jettySize=auto;html=1;" edge="1" parent="1" source="I6gEkJs_VYYYeB5HXrWA-34" target="I6gEkJs_VYYYeB5HXrWA-47">
          <mxGeometry relative="1" as="geometry">
            <Array as="points">
              <mxPoint x="581" y="490" />
              <mxPoint x="581" y="505" />
            </Array>
          </mxGeometry>
        </mxCell>
        <mxCell id="I6gEkJs_VYYYeB5HXrWA-53" value="" style="edgeStyle=orthogonalEdgeStyle;rounded=0;orthogonalLoop=1;jettySize=auto;html=1;" edge="1" parent="1" source="I6gEkJs_VYYYeB5HXrWA-34" target="I6gEkJs_VYYYeB5HXrWA-52">
          <mxGeometry relative="1" as="geometry" />
        </mxCell>
        <mxCell id="I6gEkJs_VYYYeB5HXrWA-61" style="edgeStyle=orthogonalEdgeStyle;rounded=0;orthogonalLoop=1;jettySize=auto;html=1;entryX=0.5;entryY=0;entryDx=0;entryDy=0;" edge="1" parent="1" source="I6gEkJs_VYYYeB5HXrWA-34" target="I6gEkJs_VYYYeB5HXrWA-59">
          <mxGeometry relative="1" as="geometry">
            <Array as="points">
              <mxPoint x="470" y="530" />
              <mxPoint x="395" y="530" />
            </Array>
          </mxGeometry>
        </mxCell>
        <mxCell id="I6gEkJs_VYYYeB5HXrWA-34" value="PAGOS" style="whiteSpace=wrap;html=1;" vertex="1" parent="1">
          <mxGeometry x="440" y="450" width="120" height="60" as="geometry" />
        </mxCell>
        <mxCell id="I6gEkJs_VYYYeB5HXrWA-39" style="edgeStyle=orthogonalEdgeStyle;rounded=0;orthogonalLoop=1;jettySize=auto;html=1;" edge="1" parent="1" source="I6gEkJs_VYYYeB5HXrWA-37" target="I6gEkJs_VYYYeB5HXrWA-2">
          <mxGeometry relative="1" as="geometry">
            <Array as="points">
              <mxPoint x="320" y="297" />
              <mxPoint x="320" y="170" />
            </Array>
          </mxGeometry>
        </mxCell>
        <mxCell id="I6gEkJs_VYYYeB5HXrWA-37" value="corresponden" style="rhombus;whiteSpace=wrap;html=1;" vertex="1" parent="1">
          <mxGeometry x="380" y="270" width="50" height="55" as="geometry" />
        </mxCell>
        <mxCell id="I6gEkJs_VYYYeB5HXrWA-46" value="" style="edgeStyle=orthogonalEdgeStyle;rounded=0;orthogonalLoop=1;jettySize=auto;html=1;" edge="1" parent="1" source="I6gEkJs_VYYYeB5HXrWA-43" target="I6gEkJs_VYYYeB5HXrWA-45">
          <mxGeometry relative="1" as="geometry" />
        </mxCell>
        <mxCell id="I6gEkJs_VYYYeB5HXrWA-43" value="paga" style="rhombus;whiteSpace=wrap;html=1;" vertex="1" parent="1">
          <mxGeometry x="600" y="420" width="50" height="50" as="geometry" />
        </mxCell>
        <mxCell id="I6gEkJs_VYYYeB5HXrWA-45" value="MATRICULA" style="whiteSpace=wrap;html=1;" vertex="1" parent="1">
          <mxGeometry x="660" y="350" width="120" height="60" as="geometry" />
        </mxCell>
        <mxCell id="I6gEkJs_VYYYeB5HXrWA-51" style="edgeStyle=orthogonalEdgeStyle;rounded=0;orthogonalLoop=1;jettySize=auto;html=1;entryX=0.5;entryY=0;entryDx=0;entryDy=0;" edge="1" parent="1" source="I6gEkJs_VYYYeB5HXrWA-47" target="I6gEkJs_VYYYeB5HXrWA-49">
          <mxGeometry relative="1" as="geometry" />
        </mxCell>
        <mxCell id="I6gEkJs_VYYYeB5HXrWA-47" value="paga 2" style="rhombus;whiteSpace=wrap;html=1;" vertex="1" parent="1">
          <mxGeometry x="600" y="480" width="47.5" height="50" as="geometry" />
        </mxCell>
        <mxCell id="I6gEkJs_VYYYeB5HXrWA-49" value="CUOTA" style="whiteSpace=wrap;html=1;" vertex="1" parent="1">
          <mxGeometry x="660" y="540" width="120" height="60" as="geometry" />
        </mxCell>
        <mxCell id="I6gEkJs_VYYYeB5HXrWA-55" value="" style="edgeStyle=orthogonalEdgeStyle;rounded=0;orthogonalLoop=1;jettySize=auto;html=1;" edge="1" parent="1" source="I6gEkJs_VYYYeB5HXrWA-52" target="I6gEkJs_VYYYeB5HXrWA-54">
          <mxGeometry relative="1" as="geometry" />
        </mxCell>
        <mxCell id="I6gEkJs_VYYYeB5HXrWA-52" value="abona" style="rhombus;whiteSpace=wrap;html=1;" vertex="1" parent="1">
          <mxGeometry x="550" y="550" width="40" height="40" as="geometry" />
        </mxCell>
        <mxCell id="I6gEkJs_VYYYeB5HXrWA-54" value="DEBITO" style="whiteSpace=wrap;html=1;" vertex="1" parent="1">
          <mxGeometry x="510" y="630" width="120" height="60" as="geometry" />
        </mxCell>
        <mxCell id="I6gEkJs_VYYYeB5HXrWA-58" value="" style="edgeStyle=orthogonalEdgeStyle;rounded=0;orthogonalLoop=1;jettySize=auto;html=1;" edge="1" parent="1" source="I6gEkJs_VYYYeB5HXrWA-59" target="I6gEkJs_VYYYeB5HXrWA-60">
          <mxGeometry relative="1" as="geometry" />
        </mxCell>
        <mxCell id="I6gEkJs_VYYYeB5HXrWA-59" value="abona 2" style="rhombus;whiteSpace=wrap;html=1;" vertex="1" parent="1">
          <mxGeometry x="375" y="550" width="40" height="40" as="geometry" />
        </mxCell>
        <mxCell id="I6gEkJs_VYYYeB5HXrWA-60" value="CREDITO" style="whiteSpace=wrap;html=1;" vertex="1" parent="1">
          <mxGeometry x="335" y="630" width="120" height="60" as="geometry" />
        </mxCell>
        <mxCell id="I6gEkJs_VYYYeB5HXrWA-63" style="edgeStyle=orthogonalEdgeStyle;rounded=0;orthogonalLoop=1;jettySize=auto;html=1;entryX=0.5;entryY=1;entryDx=0;entryDy=0;" edge="1" parent="1" source="I6gEkJs_VYYYeB5HXrWA-62" target="I6gEkJs_VYYYeB5HXrWA-54">
          <mxGeometry relative="1" as="geometry" />
        </mxCell>
        <mxCell id="I6gEkJs_VYYYeB5HXrWA-64" style="edgeStyle=orthogonalEdgeStyle;rounded=0;orthogonalLoop=1;jettySize=auto;html=1;entryX=0.5;entryY=1;entryDx=0;entryDy=0;" edge="1" parent="1" source="I6gEkJs_VYYYeB5HXrWA-62" target="I6gEkJs_VYYYeB5HXrWA-60">
          <mxGeometry relative="1" as="geometry" />
        </mxCell>
        <mxCell id="I6gEkJs_VYYYeB5HXrWA-69" value="" style="edgeStyle=orthogonalEdgeStyle;rounded=0;orthogonalLoop=1;jettySize=auto;html=1;" edge="1" parent="1" source="I6gEkJs_VYYYeB5HXrWA-62" target="I6gEkJs_VYYYeB5HXrWA-68">
          <mxGeometry relative="1" as="geometry" />
        </mxCell>
        <mxCell id="I6gEkJs_VYYYeB5HXrWA-62" value="TARJETA" style="whiteSpace=wrap;html=1;" vertex="1" parent="1">
          <mxGeometry x="430" y="770" width="120" height="60" as="geometry" />
        </mxCell>
        <mxCell id="I6gEkJs_VYYYeB5HXrWA-65" value="(T,E)" style="text;html=1;align=center;verticalAlign=middle;resizable=0;points=[];autosize=1;strokeColor=none;fillColor=none;" vertex="1" parent="1">
          <mxGeometry x="495" y="738" width="50" height="30" as="geometry" />
        </mxCell>
        <mxCell id="I6gEkJs_VYYYeB5HXrWA-66" value="BANCO" style="whiteSpace=wrap;html=1;" vertex="1" parent="1">
          <mxGeometry x="680" y="770" width="120" height="60" as="geometry" />
        </mxCell>
        <mxCell id="I6gEkJs_VYYYeB5HXrWA-73" value="" style="edgeStyle=orthogonalEdgeStyle;rounded=0;orthogonalLoop=1;jettySize=auto;html=1;" edge="1" parent="1" source="I6gEkJs_VYYYeB5HXrWA-67" target="I6gEkJs_VYYYeB5HXrWA-72">
          <mxGeometry relative="1" as="geometry" />
        </mxCell>
        <mxCell id="I6gEkJs_VYYYeB5HXrWA-67" value="ENTIDAD&lt;div&gt;EMISORA&lt;/div&gt;" style="whiteSpace=wrap;html=1;" vertex="1" parent="1">
          <mxGeometry x="200" y="770" width="120" height="60" as="geometry" />
        </mxCell>
        <mxCell id="I6gEkJs_VYYYeB5HXrWA-70" value="" style="edgeStyle=orthogonalEdgeStyle;rounded=0;orthogonalLoop=1;jettySize=auto;html=1;" edge="1" parent="1" source="I6gEkJs_VYYYeB5HXrWA-68" target="I6gEkJs_VYYYeB5HXrWA-66">
          <mxGeometry relative="1" as="geometry" />
        </mxCell>
        <mxCell id="I6gEkJs_VYYYeB5HXrWA-68" value="pertenece" style="rhombus;whiteSpace=wrap;html=1;" vertex="1" parent="1">
          <mxGeometry x="590" y="775" width="46.25" height="50" as="geometry" />
        </mxCell>
        <mxCell id="I6gEkJs_VYYYeB5HXrWA-75" style="edgeStyle=orthogonalEdgeStyle;rounded=0;orthogonalLoop=1;jettySize=auto;html=1;entryX=0;entryY=0.5;entryDx=0;entryDy=0;" edge="1" parent="1" source="I6gEkJs_VYYYeB5HXrWA-72" target="I6gEkJs_VYYYeB5HXrWA-62">
          <mxGeometry relative="1" as="geometry" />
        </mxCell>
        <mxCell id="I6gEkJs_VYYYeB5HXrWA-72" value="emite" style="rhombus;whiteSpace=wrap;html=1;" vertex="1" parent="1">
          <mxGeometry x="350" y="775" width="50" height="50" as="geometry" />
        </mxCell>
      </root>
    </mxGraphModel>
  </diagram>
</mxfile>
